<!DOCTYPE svg PUBLIC "-//W3C//DTD SVG 1.1//EN" "http://www.w3.org/Graphics/SVG/1.1/DTD/svg11.dtd">
<!-- Uploaded to: SVG Repo, www.svgrepo.com, Transformed by: SVG Repo Mixer Tools -->
<svg width="800px" height="800px" viewBox="0 0 16 16" xmlns="http://www.w3.org/2000/svg" fill="#3f8ad9" class="bi bi-water" stroke="#3f8ad9">
<g id="SVGRepo_bgCarrier" stroke-width="0"/>
<g id="SVGRepo_tracerCarrier" stroke-linecap="round" stroke-linejoin="round"/>
<g id="SVGRepo_iconCarrier"> <path d="M.036 3.314a.5.5 0 0 1 .65-.278l1.757.703a1.5 1.5 0 0 0 1.114 0l1.014-.406a2.5 2.5 0 0 1 1.857 0l1.015.406a1.5 1.5 0 0 0 1.114 0l1.014-.406a2.5 2.5 0 0 1 1.857 0l1.015.406a1.5 1.5 0 0 0 1.114 0l1.757-.703a.5.5 0 1 1 .372.928l-1.758.703a2.5 2.5 0 0 1-1.857 0l-1.014-.406a1.5 1.5 0 0 0-1.114 0l-1.015.406a2.5 2.5 0 0 1-1.857 0l-1.014-.406a1.5 1.5 0 0 0-1.114 0l-1.015.406a2.5 2.5 0 0 1-1.857 0L.314 3.964a.5.5 0 0 1-.278-.65zm0 3a.5.5 0 0 1 .65-.278l1.757.703a1.5 1.5 0 0 0 1.114 0l1.014-.406a2.5 2.5 0 0 1 1.857 0l1.015.406a1.5 1.5 0 0 0 1.114 0l1.014-.406a2.5 2.5 0 0 1 1.857 0l1.015.406a1.5 1.5 0 0 0 1.114 0l1.757-.703a.5.5 0 1 1 .372.928l-1.758.703a2.5 2.5 0 0 1-1.857 0l-1.014-.406a1.5 1.5 0 0 0-1.114 0l-1.015.406a2.5 2.5 0 0 1-1.857 0l-1.014-.406a1.5 1.5 0 0 0-1.114 0l-1.015.406a2.5 2.5 0 0 1-1.857 0L.314 6.964a.5.5 0 0 1-.278-.65zm0 3a.5.5 0 0 1 .65-.278l1.757.703a1.5 1.5 0 0 0 1.114 0l1.014-.406a2.5 2.5 0 0 1 1.857 0l1.015.406a1.5 1.5 0 0 0 1.114 0l1.014-.406a2.5 2.5 0 0 1 1.857 0l1.015.406a1.5 1.5 0 0 0 1.114 0l1.757-.703a.5.5 0 1 1 .372.928l-1.758.703a2.5 2.5 0 0 1-1.857 0l-1.014-.406a1.5 1.5 0 0 0-1.114 0l-1.015.406a2.5 2.5 0 0 1-1.857 0l-1.014-.406a1.5 1.5 0 0 0-1.114 0l-1.015.406a2.5 2.5 0 0 1-1.857 0L.314 9.964a.5.5 0 0 1-.278-.65zm0 3a.5.5 0 0 1 .65-.278l1.757.703a1.5 1.5 0 0 0 1.114 0l1.014-.406a2.5 2.5 0 0 1 1.857 0l1.015.406a1.5 1.5 0 0 0 1.114 0l1.014-.406a2.5 2.5 0 0 1 1.857 0l1.015.406a1.5 1.5 0 0 0 1.114 0l1.757-.703a.5.5 0 1 1 .372.928l-1.758.703a2.5 2.5 0 0 1-1.857 0l-1.014-.406a1.5 1.5 0 0 0-1.114 0l-1.015.406a2.5 2.5 0 0 1-1.857 0l-1.014-.406a1.5 1.5 0 0 0-1.114 0l-1.015.406a2.5 2.5 0 0 1-1.857 0l-1.757-.703a.5.5 0 0 1-.278-.65z"/> </g>
</svg>